Coordinates
version=1
nRows=10
nColumns=40
inDegrees=yes

Units are S.I. units (second, meters, Newtons, ...)
If the header above contains a line with 'inDegrees', this indicates whether rotational values are in degrees (yes) or radians (no).

endheader
time	pelvis_tilt	pelvis_list	pelvis_rotation	pelvis_tx	pelvis_ty	pelvis_tz	hip_flexion_r	hip_adduction_r	hip_rotation_r	knee_angle_r	knee_angle_r_beta	ankle_angle_r	subtalar_angle_r	mtp_angle_r	hip_flexion_l	hip_adduction_l	hip_rotation_l	knee_angle_l	knee_angle_l_beta	ankle_angle_l	subtalar_angle_l	mtp_angle_l	lumbar_extension	lumbar_bending	lumbar_rotation	arm_flex_r	arm_add_r	arm_rot_r	elbow_flex_r	pro_sup_r	wrist_flex_r	wrist_dev_r	arm_flex_l	arm_add_l	arm_rot_l	elbow_flex_l	pro_sup_l	wrist_flex_l	wrist_dev_l
      4.37500000	    -23.38480928	      3.16493373	      1.01332843	     -0.37610671	      0.79575665	     -1.00772982	     27.78284543	     -5.66014975	     -2.88015868	     89.59341113	      1.56370001	    -13.74021958	      0.00000000	      0.00000000	     61.76250407	      2.93143879	    -10.05981985	     62.01860274	      1.08242882	     15.11578711	      0.00000000	      0.00000000	     -9.55961610	     -7.07249333	      1.14077749	     89.91475920	    -16.94612672	     10.31622595	     40.34000827	     79.02556581	      0.00000000	      0.00000000	     89.90913335	    -25.94375418	     13.95822088	     47.02891702	     81.68012098	      0.00000000	      0.00000000
      4.38000000	    -23.54508352	      3.23817242	      0.99265037	     -0.37636759	      0.79452082	     -1.00779033	     27.89982951	     -5.72275446	     -2.78533164	     89.60578373	      1.56391595	    -13.87863386	      0.00000000	      0.00000000	     62.08024667	      2.96313150	    -10.11902415	     62.24644009	      1.08640533	     15.25999145	      0.00000000	      0.00000000	     -9.49312403	     -7.16097104	      1.19952694	     89.91510909	    -17.08621659	     10.18166024	     40.53872492	     81.05506852	      0.00000000	      0.00000000	     89.90971941	    -26.00493685	     13.83407821	     47.20100243	     84.12658981	      0.00000000	      0.00000000
      4.38500000	    -23.63834928	      3.29776133	      0.97075699	     -0.37651908	      0.79340796	     -1.00779827	     27.90505954	     -5.73532881	     -2.67147182	     89.56877834	      1.56327009	    -13.83490397	      0.00000000	      0.00000000	     62.33055123	      3.01448971	    -10.10816828	     62.47166985	      1.09033633	     15.35127499	      0.00000000	      0.00000000	     -9.49437096	     -7.22737542	      1.19570799	     89.91609125	    -17.00430060	      9.90844142	     40.71235137	     81.06573662	      0.00000000	      0.00000000	     89.91029313	    -25.99511088	     13.67102158	     47.27342245	     83.96034204	      0.00000000	      0.00000000
      4.39000000	    -23.75196951	      3.33071295	      0.91438960	     -0.37659305	      0.79217358	     -1.00786552	     27.93415194	     -5.75464472	     -2.58755281	     89.56879208	      1.56327033	    -13.78102009	      0.00000000	      0.00000000	     62.60340024	      3.00301602	    -10.10953962	     62.76259323	      1.09541390	     15.49169720	      0.00000000	      0.00000000	     -9.44920318	     -7.25334782	      1.26413201	     89.91664312	    -17.08720603	      9.98217217	     40.82439672	     81.23991993	      0.00000000	      0.00000000	     89.91072644	    -26.01645264	     13.61502088	     47.33736662	     84.07471150	      0.00000000	      0.00000000
      4.39500000	    -23.79888549	      3.42856236	      0.84821129	     -0.37664580	      0.79103429	     -1.00786106	     27.88535757	     -5.82751464	     -2.46813243	     89.56726524	      1.56324368	    -13.66814705	      0.00000000	      0.00000000	     62.78898583	      3.01888859	    -10.19597512	     63.01169011	      1.09976146	     15.64025228	      0.00000000	      0.00000000	     -9.48068014	     -7.37099322	      1.29777173	     89.91725592	    -17.05320286	      9.92624325	     40.96321871	     80.80106183	      0.00000000	      0.00000000	     89.91127657	    -26.03629245	     13.55442387	     47.41037603	     83.92816834	      0.00000000	      0.00000000
      4.40000000	    -24.00444723	      3.42125697	      0.87115784	     -0.37699512	      0.78979906	     -1.00783241	     28.04718579	     -5.79024169	     -2.45092675	     89.55103217	      1.56296036	    -13.82772530	      0.00000000	      0.00000000	     63.17807975	      3.01186071	    -10.18005165	     63.27326660	      1.10432683	     15.68874959	      0.00000000	      0.00000000	     -9.36454207	     -7.35100265	      1.26146427	     89.91792486	    -17.02177763	     10.05528648	     41.07724364	     79.72730988	      0.00000000	      0.00000000	     89.91243531	    -26.12183227	     13.68236745	     47.57197325	     82.82355765	      0.00000000	      0.00000000
      4.40500000	    -24.09441610	      3.43934412	      0.87866929	     -0.37714329	      0.78862780	     -1.00780799	     28.02062885	     -5.77324705	     -2.41249589	     89.52771439	      1.56255339	    -13.62196749	      0.00000000	      0.00000000	     63.42786696	      3.04747774	    -10.11579540	     63.52731688	      1.10876084	     15.83342152	      0.00000000	      0.00000000	     -9.34241304	     -7.39163200	      1.23407078	     89.91867090	    -16.88424173	      9.88246060	     41.11300898	     77.18603150	      0.00000000	      0.00000000	     89.91256667	    -25.95673150	     13.44576353	     47.53842466	     79.97735577	      0.00000000	      0.00000000
      4.41000000	    -24.19589142	      3.54829433	      0.84819722	     -0.37724091	      0.78754060	     -1.00793385	     28.04292019	     -5.87634535	     -2.30248151	     89.49412368	      1.56196712	    -13.71118198	      0.00000000	      0.00000000	     63.65622477	      3.09865417	    -10.21257494	     63.73903057	      1.11245595	     15.94754443	      0.00000000	      0.00000000	     -9.34370818	     -7.49494398	      1.25899468	     89.91887072	    -16.95022093	      9.50280478	     41.32148482	     80.49043924	      0.00000000	      0.00000000	     89.91320447	    -26.03582478	     13.11892024	     47.64716461	     84.14875854	      0.00000000	      0.00000000
      4.41500000	    -24.30306879	      3.59971422	      0.84600430	     -0.37739273	      0.78635542	     -1.00802604	     28.06696090	     -5.93504765	     -2.25123198	     89.48699613	      1.56184272	    -13.68933799	      0.00000000	      0.00000000	     63.91639082	      3.12407453	    -10.25567517	     63.99677421	      1.11695442	     16.07805575	      0.00000000	      0.00000000	     -9.31360786	     -7.54299403	      1.24716183	     89.91959586	    -16.95389939	      9.52852737	     41.44507834	     80.33219069	      0.00000000	      0.00000000	     89.91348282	    -26.04059999	     13.01655218	     47.71129038	     84.10066210	      0.00000000	      0.00000000
      4.42000000	    -24.40510565	      3.65417326	      0.84729942	     -0.37748164	      0.78518333	     -1.00818688	     28.06913710	     -5.99388306	     -2.19886435	     89.46477407	      1.56145487	    -13.71082336	      0.00000000	      0.00000000	     64.16121865	      3.17995059	    -10.26976601	     64.22537076	      1.12094418	     16.20749696	      0.00000000	      0.00000000	     -9.29236647	     -7.59570536	      1.22655805	     89.92000410	    -16.95276496	      9.41826754	     41.53063194	     80.62085290	      0.00000000	      0.00000000	     89.91423815	    -25.99954977	     12.82781146	     47.76218971	     84.10602811	      0.00000000	      0.00000000
